<svg width="690.0" height="1456.0" viewBox="0 0 690.0 1456.0" xmlns="http://www.w3.org/2000/svg">
<style>/* font and background color specifications */
svg {
    font-family: SFMono-Regular,Consolas,Liberation Mono,Menlo,monospace;
    font-size: 14px;
    font-kerning: normal;
    text-rendering: optimizeLegibility;
    fill: #24292e;
}

/* default key styling */
rect {
    fill: #f6f8fa;
    stroke: #c9cccf;
    stroke-width: 1;
}

/* color accent for combo boxes */
rect.combo {
    fill: #cdf;
}

/* color accent for held keys */
rect.held, rect.combo.held {
    fill: #fdd;
}

/* color accent for ghost (optional) keys */
rect.ghost, rect.combo.ghost {
    fill: #ddd;
}

text {
    text-anchor: middle;
    dominant-baseline: middle;
}

/* styling for layer labels */
text.label {
    font-weight: bold;
    text-anchor: start;
    stroke: white;
    stroke-width: 2;
    paint-order: stroke;
}

/* styling for combo tap, and key hold/shifted label text */
text.combo, text.hold, text.shifted {
    font-size: 11px;
}

text.hold {
    text-anchor: middle;
    dominant-baseline: auto;
}

text.shifted {
    text-anchor: middle;
    dominant-baseline: hanging;
}

/* styling for hold/shifted label text in combo box */
text.combo.hold, text.combo.shifted {
    font-size: 8px;
}

/* styling for combo dendrons */
path {
    stroke-width: 1;
    stroke: gray;
    fill: none;
}
</style>
<g class="layer-default_layer">
<text x="30.0" y="28.0" class="label">default_layer:</text>
<rect rx="6.0" ry="6.0" x="32.0" y="86.0" width="56.0" height="52.0" class=""/>
<text x="60.0" y="112.0" class="tap">Q</text>
<rect rx="6.0" ry="6.0" x="92.0" y="58.0" width="56.0" height="52.0" class=""/>
<text x="120.0" y="84.0" class="tap">W</text>
<rect rx="6.0" ry="6.0" x="152.0" y="58.0" width="56.0" height="52.0" class=""/>
<text x="180.0" y="84.0" class="tap">F</text>
<rect rx="6.0" ry="6.0" x="212.0" y="58.0" width="56.0" height="52.0" class=""/>
<text x="240.0" y="84.0" class="tap">P</text>
<rect rx="6.0" ry="6.0" x="272.0" y="86.0" width="56.0" height="52.0" class=""/>
<text x="300.0" y="112.0" class="tap">B</text>
<rect rx="6.0" ry="6.0" x="362.0" y="86.0" width="56.0" height="52.0" class=""/>
<text x="390.0" y="112.0" class="tap">J</text>
<rect rx="6.0" ry="6.0" x="422.0" y="58.0" width="56.0" height="52.0" class=""/>
<text x="450.0" y="84.0" class="tap">L</text>
<rect rx="6.0" ry="6.0" x="482.0" y="58.0" width="56.0" height="52.0" class=""/>
<text x="510.0" y="84.0" class="tap">U</text>
<rect rx="6.0" ry="6.0" x="542.0" y="58.0" width="56.0" height="52.0" class=""/>
<text x="570.0" y="84.0" class="tap">Y</text>
<rect rx="6.0" ry="6.0" x="602.0" y="86.0" width="56.0" height="52.0" class=""/>
<text x="630.0" y="112.0" class="tap">Sym</text>
<text x="630.0" y="136.0" class="hold">sticky</text>
<rect rx="6.0" ry="6.0" x="32.0" y="142.0" width="56.0" height="52.0" class=""/>
<text x="60.0" y="168.0" class="tap">A</text>
<rect rx="6.0" ry="6.0" x="92.0" y="114.0" width="56.0" height="52.0" class=""/>
<text x="120.0" y="140.0" class="tap">R</text>
<rect rx="6.0" ry="6.0" x="152.0" y="114.0" width="56.0" height="52.0" class=""/>
<text x="180.0" y="140.0" class="tap">S</text>
<rect rx="6.0" ry="6.0" x="212.0" y="114.0" width="56.0" height="52.0" class=""/>
<text x="240.0" y="140.0" class="tap">T</text>
<rect rx="6.0" ry="6.0" x="272.0" y="142.0" width="56.0" height="52.0" class=""/>
<text x="300.0" y="168.0" class="tap">G</text>
<rect rx="6.0" ry="6.0" x="362.0" y="142.0" width="56.0" height="52.0" class=""/>
<text x="390.0" y="168.0" class="tap">M</text>
<rect rx="6.0" ry="6.0" x="422.0" y="114.0" width="56.0" height="52.0" class=""/>
<text x="450.0" y="140.0" class="tap">N</text>
<rect rx="6.0" ry="6.0" x="482.0" y="114.0" width="56.0" height="52.0" class=""/>
<text x="510.0" y="140.0" class="tap">E</text>
<rect rx="6.0" ry="6.0" x="542.0" y="114.0" width="56.0" height="52.0" class=""/>
<text x="570.0" y="140.0" class="tap">I</text>
<rect rx="6.0" ry="6.0" x="602.0" y="142.0" width="56.0" height="52.0" class=""/>
<text x="630.0" y="168.0" class="tap">O</text>
<rect rx="6.0" ry="6.0" x="92.0" y="170.0" width="56.0" height="52.0" class=""/>
<text x="120.0" y="196.0" class="tap">X</text>
<rect rx="6.0" ry="6.0" x="152.0" y="170.0" width="56.0" height="52.0" class=""/>
<text x="180.0" y="196.0" class="tap">C</text>
<rect rx="6.0" ry="6.0" x="212.0" y="170.0" width="56.0" height="52.0" class=""/>
<text x="240.0" y="196.0" class="tap">D</text>
<rect rx="6.0" ry="6.0" x="422.0" y="170.0" width="56.0" height="52.0" class=""/>
<text x="450.0" y="196.0" class="tap">H</text>
<rect rx="6.0" ry="6.0" x="482.0" y="170.0" width="56.0" height="52.0" class=""/>
<text x="510.0" y="196.0" class="tap">,</text>
<rect rx="6.0" ry="6.0" x="542.0" y="170.0" width="56.0" height="52.0" class=""/>
<text x="570.0" y="196.0" class="tap">.</text>
<rect rx="6.0" ry="6.0" x="212.0" y="226.0" width="56.0" height="52.0" class=""/>
<text x="240.0" y="252.0" class="tap">Nav</text>
<rect rx="6.0" ry="6.0" x="272.0" y="226.0" width="56.0" height="52.0" class=""/>
<text x="300.0" y="252.0" class="tap">SPACE</text>
<rect rx="6.0" ry="6.0" x="362.0" y="226.0" width="56.0" height="52.0" class=""/>
<text x="390.0" y="252.0" class="tap">SHIFT</text>
<text x="390.0" y="276.0" class="hold">sticky</text>
<rect rx="6.0" ry="6.0" x="422.0" y="226.0" width="56.0" height="52.0" class=""/>
<text x="450.0" y="252.0" class="tap">Sec</text>
<rect rx="6.0" ry="6.0" x="196.0" y="127.0" width="28.0" height="26.0" class="combo"/>
<text x="210.0" y="140.0" class="combo">V</text>
<rect rx="6.0" ry="6.0" x="466.0" y="127.0" width="28.0" height="26.0" class="combo"/>
<text x="480.0" y="140.0" class="combo">K</text>
<rect rx="6.0" ry="6.0" x="76.0" y="141.0" width="28.0" height="26.0" class="combo"/>
<text x="90.0" y="154.0" class="combo">Z</text>
<rect rx="6.0" ry="6.0" x="166.0" y="155.0" width="28.0" height="26.0" class="combo"/>
<text x="180.0" y="168.0" class="combo">D</text>
<rect rx="6.0" ry="6.0" x="586.0" y="141.0" width="28.0" height="26.0" class="combo"/>
<text x="600.0" y="154.0" class="combo">$</text>
<rect rx="6.0" ry="6.0" x="406.0" y="141.0" width="28.0" height="26.0" class="combo"/>
<text x="420.0" y="154.0" class="combo">
<tspan x="420.0" dy="-0.6em">BS</tspan><tspan x="420.0" dy="1.2em">WRD</tspan></text>
<rect rx="6.0" ry="6.0" x="526.0" y="183.0" width="28.0" height="26.0" class="combo"/>
<text x="540.0" y="196.0" class="combo">;</text>
<rect rx="6.0" ry="6.0" x="106.0" y="99.0" width="28.0" height="26.0" class="combo"/>
<text x="120.0" y="112.0" class="combo">[</text>
<rect rx="6.0" ry="6.0" x="556.0" y="99.0" width="28.0" height="26.0" class="combo"/>
<text x="570.0" y="112.0" class="combo">]</text>
<rect rx="6.0" ry="6.0" x="166.0" y="99.0" width="28.0" height="26.0" class="combo"/>
<text x="180.0" y="112.0" class="combo">(</text>
<rect rx="6.0" ry="6.0" x="496.0" y="99.0" width="28.0" height="26.0" class="combo"/>
<text x="510.0" y="112.0" class="combo">)</text>
<rect rx="6.0" ry="6.0" x="226.0" y="99.0" width="28.0" height="26.0" class="combo"/>
<text x="240.0" y="112.0" class="combo">{</text>
<rect rx="6.0" ry="6.0" x="436.0" y="99.0" width="28.0" height="26.0" class="combo"/>
<text x="450.0" y="112.0" class="combo">}</text>
<rect rx="6.0" ry="6.0" x="256.0" y="85.0" width="28.0" height="26.0" class="combo"/>
<text x="270.0" y="98.0" class="combo">ESC</text>
<rect rx="6.0" ry="6.0" x="256.0" y="141.0" width="28.0" height="26.0" class="combo"/>
<text x="270.0" y="154.0" class="combo">DEL</text>
</g>
<g class="layer-Sec">
<text x="30.0" y="308.0" class="label">Sec:</text>
<rect rx="6.0" ry="6.0" x="32.0" y="366.0" width="56.0" height="52.0" class=""/>
<text x="60.0" y="392.0" class="tap">Z</text>
<rect rx="6.0" ry="6.0" x="92.0" y="338.0" width="56.0" height="52.0" class=""/>
<text x="120.0" y="364.0" class="tap">Ż</text>
<rect rx="6.0" ry="6.0" x="152.0" y="338.0" width="56.0" height="52.0" class=""/>
<rect rx="6.0" ry="6.0" x="212.0" y="338.0" width="56.0" height="52.0" class=""/>
<rect rx="6.0" ry="6.0" x="272.0" y="366.0" width="56.0" height="52.0" class=""/>
<rect rx="6.0" ry="6.0" x="362.0" y="366.0" width="56.0" height="52.0" class=""/>
<rect rx="6.0" ry="6.0" x="422.0" y="338.0" width="56.0" height="52.0" class=""/>
<text x="450.0" y="364.0" class="tap">Ł</text>
<rect rx="6.0" ry="6.0" x="482.0" y="338.0" width="56.0" height="52.0" class=""/>
<rect rx="6.0" ry="6.0" x="542.0" y="338.0" width="56.0" height="52.0" class=""/>
<rect rx="6.0" ry="6.0" x="602.0" y="366.0" width="56.0" height="52.0" class=""/>
<rect rx="6.0" ry="6.0" x="32.0" y="422.0" width="56.0" height="52.0" class=""/>
<text x="60.0" y="448.0" class="tap">Ą</text>
<rect rx="6.0" ry="6.0" x="92.0" y="394.0" width="56.0" height="52.0" class=""/>
<text x="120.0" y="420.0" class="tap">Z</text>
<rect rx="6.0" ry="6.0" x="152.0" y="394.0" width="56.0" height="52.0" class=""/>
<text x="180.0" y="420.0" class="tap">Ś</text>
<rect rx="6.0" ry="6.0" x="212.0" y="394.0" width="56.0" height="52.0" class=""/>
<text x="240.0" y="420.0" class="tap">V</text>
<rect rx="6.0" ry="6.0" x="272.0" y="422.0" width="56.0" height="52.0" class=""/>
<rect rx="6.0" ry="6.0" x="362.0" y="422.0" width="56.0" height="52.0" class=""/>
<text x="390.0" y="448.0" class="tap">K</text>
<rect rx="6.0" ry="6.0" x="422.0" y="394.0" width="56.0" height="52.0" class=""/>
<text x="450.0" y="420.0" class="tap">Ń</text>
<rect rx="6.0" ry="6.0" x="482.0" y="394.0" width="56.0" height="52.0" class=""/>
<text x="510.0" y="420.0" class="tap">Ę</text>
<rect rx="6.0" ry="6.0" x="542.0" y="394.0" width="56.0" height="52.0" class=""/>
<text x="570.0" y="420.0" class="tap">SHIFT</text>
<rect rx="6.0" ry="6.0" x="602.0" y="422.0" width="56.0" height="52.0" class=""/>
<text x="630.0" y="448.0" class="tap">Ó</text>
<rect rx="6.0" ry="6.0" x="92.0" y="450.0" width="56.0" height="52.0" class=""/>
<text x="120.0" y="476.0" class="tap">Ź</text>
<rect rx="6.0" ry="6.0" x="152.0" y="450.0" width="56.0" height="52.0" class=""/>
<text x="180.0" y="476.0" class="tap">Ć</text>
<rect rx="6.0" ry="6.0" x="212.0" y="450.0" width="56.0" height="52.0" class=""/>
<rect rx="6.0" ry="6.0" x="422.0" y="450.0" width="56.0" height="52.0" class=""/>
<text x="450.0" y="476.0" class="tap">K</text>
<rect rx="6.0" ry="6.0" x="482.0" y="450.0" width="56.0" height="52.0" class=""/>
<rect rx="6.0" ry="6.0" x="542.0" y="450.0" width="56.0" height="52.0" class=""/>
<rect rx="6.0" ry="6.0" x="212.0" y="506.0" width="56.0" height="52.0" class=""/>
<rect rx="6.0" ry="6.0" x="272.0" y="506.0" width="56.0" height="52.0" class=""/>
<text x="300.0" y="532.0" class="tap">ENTER</text>
<rect rx="6.0" ry="6.0" x="362.0" y="506.0" width="56.0" height="52.0" class=""/>
<rect rx="6.0" ry="6.0" x="422.0" y="506.0" width="56.0" height="52.0" class="held"/>
<rect rx="6.0" ry="6.0" x="256.0" y="365.0" width="28.0" height="26.0" class="combo"/>
<text x="270.0" y="378.0" class="combo">ESC</text>
<rect rx="6.0" ry="6.0" x="256.0" y="421.0" width="28.0" height="26.0" class="combo"/>
<text x="270.0" y="434.0" class="combo">DEL</text>
</g>
<g class="layer-Nav">
<text x="30.0" y="588.0" class="label">Nav:</text>
<rect rx="6.0" ry="6.0" x="32.0" y="646.0" width="56.0" height="52.0" class=""/>
<text x="60.0" y="672.0" class="tap">BSPC</text>
<rect rx="6.0" ry="6.0" x="92.0" y="618.0" width="56.0" height="52.0" class=""/>
<text x="120.0" y="644.0" class="tap">UNDO</text>
<rect rx="6.0" ry="6.0" x="152.0" y="618.0" width="56.0" height="52.0" class=""/>
<text x="180.0" y="644.0" class="tap">F3</text>
<rect rx="6.0" ry="6.0" x="212.0" y="618.0" width="56.0" height="52.0" class=""/>
<text x="240.0" y="644.0" class="tap">F4</text>
<rect rx="6.0" ry="6.0" x="272.0" y="646.0" width="56.0" height="52.0" class=""/>
<text x="300.0" y="672.0" class="tap">REDO</text>
<rect rx="6.0" ry="6.0" x="362.0" y="646.0" width="56.0" height="52.0" class=""/>
<text x="390.0" y="672.0" class="tap">
<tspan x="390.0" dy="-0.6em">PG</tspan><tspan x="390.0" dy="1.2em">UP</tspan></text>
<rect rx="6.0" ry="6.0" x="422.0" y="618.0" width="56.0" height="52.0" class=""/>
<text x="450.0" y="644.0" class="tap">HOME</text>
<rect rx="6.0" ry="6.0" x="482.0" y="618.0" width="56.0" height="52.0" class=""/>
<text x="510.0" y="644.0" class="tap">UARW</text>
<rect rx="6.0" ry="6.0" x="542.0" y="618.0" width="56.0" height="52.0" class=""/>
<text x="570.0" y="644.0" class="tap">END</text>
<rect rx="6.0" ry="6.0" x="602.0" y="646.0" width="56.0" height="52.0" class=""/>
<text x="630.0" y="672.0" class="tap">ESC</text>
<rect rx="6.0" ry="6.0" x="32.0" y="702.0" width="56.0" height="52.0" class=""/>
<text x="60.0" y="728.0" class="tap">
<tspan x="60.0" dy="-0.6em">BS</tspan><tspan x="60.0" dy="1.2em">WRD</tspan></text>
<rect rx="6.0" ry="6.0" x="92.0" y="674.0" width="56.0" height="52.0" class=""/>
<text x="120.0" y="700.0" class="tap">ALT</text>
<text x="120.0" y="724.0" class="hold">sticky</text>
<rect rx="6.0" ry="6.0" x="152.0" y="674.0" width="56.0" height="52.0" class=""/>
<text x="180.0" y="700.0" class="tap">SHIFT</text>
<text x="180.0" y="724.0" class="hold">sticky</text>
<rect rx="6.0" ry="6.0" x="212.0" y="674.0" width="56.0" height="52.0" class=""/>
<text x="240.0" y="700.0" class="tap">CMD</text>
<text x="240.0" y="724.0" class="hold">sticky</text>
<rect rx="6.0" ry="6.0" x="272.0" y="702.0" width="56.0" height="52.0" class=""/>
<text x="300.0" y="728.0" class="tap">CTRL</text>
<rect rx="6.0" ry="6.0" x="362.0" y="702.0" width="56.0" height="52.0" class=""/>
<text x="390.0" y="728.0" class="tap">
<tspan x="390.0" dy="-0.6em">PG</tspan><tspan x="390.0" dy="1.2em">DN</tspan></text>
<rect rx="6.0" ry="6.0" x="422.0" y="674.0" width="56.0" height="52.0" class=""/>
<text x="450.0" y="700.0" class="tap">LARW</text>
<rect rx="6.0" ry="6.0" x="482.0" y="674.0" width="56.0" height="52.0" class=""/>
<text x="510.0" y="700.0" class="tap">DARW</text>
<rect rx="6.0" ry="6.0" x="542.0" y="674.0" width="56.0" height="52.0" class=""/>
<text x="570.0" y="700.0" class="tap">RARW</text>
<rect rx="6.0" ry="6.0" x="602.0" y="702.0" width="56.0" height="52.0" class=""/>
<text x="630.0" y="728.0" class="tap">TAB</text>
<rect rx="6.0" ry="6.0" x="92.0" y="730.0" width="56.0" height="52.0" class=""/>
<text x="120.0" y="756.0" class="tap">CUT</text>
<rect rx="6.0" ry="6.0" x="152.0" y="730.0" width="56.0" height="52.0" class=""/>
<text x="180.0" y="756.0" class="tap">COPY</text>
<rect rx="6.0" ry="6.0" x="212.0" y="730.0" width="56.0" height="52.0" class=""/>
<text x="240.0" y="756.0" class="tap">PASTE</text>
<rect rx="6.0" ry="6.0" x="422.0" y="730.0" width="56.0" height="52.0" class=""/>
<text x="450.0" y="756.0" class="tap">
<tspan x="450.0" dy="-0.6em">BACK</tspan><tspan x="450.0" dy="1.2em">WORD</tspan></text>
<rect rx="6.0" ry="6.0" x="482.0" y="730.0" width="56.0" height="52.0" class=""/>
<text x="510.0" y="756.0" class="tap">ENTER</text>
<rect rx="6.0" ry="6.0" x="542.0" y="730.0" width="56.0" height="52.0" class=""/>
<text x="570.0" y="756.0" class="tap">
<tspan x="570.0" dy="-0.6em">FWD</tspan><tspan x="570.0" dy="1.2em">WORD</tspan></text>
<rect rx="6.0" ry="6.0" x="212.0" y="786.0" width="56.0" height="52.0" class="held"/>
<rect rx="6.0" ry="6.0" x="272.0" y="786.0" width="56.0" height="52.0" class=""/>
<rect rx="6.0" ry="6.0" x="362.0" y="786.0" width="56.0" height="52.0" class=""/>
<text x="390.0" y="812.0" class="tap">
<tspan x="390.0" dy="-0.6em">&amp;sm</tspan><tspan x="390.0" dy="1.2em">LGUI</tspan></text>
<rect rx="6.0" ry="6.0" x="422.0" y="786.0" width="56.0" height="52.0" class=""/>
<rect rx="6.0" ry="6.0" x="256.0" y="645.0" width="28.0" height="26.0" class="combo"/>
<text x="270.0" y="658.0" class="combo">ESC</text>
<rect rx="6.0" ry="6.0" x="256.0" y="701.0" width="28.0" height="26.0" class="combo"/>
<text x="270.0" y="714.0" class="combo">DEL</text>
<rect rx="6.0" ry="6.0" x="136.0" y="743.0" width="28.0" height="26.0" class="combo"/>
<text x="150.0" y="756.0" class="combo">LG(A)</text>
</g>
<g class="layer-Sym">
<text x="30.0" y="868.0" class="label">Sym:</text>
<rect rx="6.0" ry="6.0" x="32.0" y="926.0" width="56.0" height="52.0" class=""/>
<text x="60.0" y="952.0" class="tap">!</text>
<rect rx="6.0" ry="6.0" x="92.0" y="898.0" width="56.0" height="52.0" class=""/>
<text x="120.0" y="924.0" class="tap">=</text>
<rect rx="6.0" ry="6.0" x="152.0" y="898.0" width="56.0" height="52.0" class=""/>
<text x="180.0" y="924.0" class="tap">&#x27;</text>
<rect rx="6.0" ry="6.0" x="212.0" y="898.0" width="56.0" height="52.0" class=""/>
<text x="240.0" y="924.0" class="tap">&quot;</text>
<rect rx="6.0" ry="6.0" x="272.0" y="926.0" width="56.0" height="52.0" class=""/>
<text x="300.0" y="952.0" class="tap">%</text>
<rect rx="6.0" ry="6.0" x="362.0" y="926.0" width="56.0" height="52.0" class=""/>
<text x="390.0" y="952.0" class="tap">:</text>
<rect rx="6.0" ry="6.0" x="422.0" y="898.0" width="56.0" height="52.0" class=""/>
<text x="450.0" y="924.0" class="tap">*</text>
<rect rx="6.0" ry="6.0" x="482.0" y="898.0" width="56.0" height="52.0" class=""/>
<text x="510.0" y="924.0" class="tap">_</text>
<rect rx="6.0" ry="6.0" x="542.0" y="898.0" width="56.0" height="52.0" class=""/>
<text x="570.0" y="924.0" class="tap">&lt;</text>
<rect rx="6.0" ry="6.0" x="602.0" y="926.0" width="56.0" height="52.0" class="held"/>
<text x="630.0" y="952.0" class="held tap">&gt;</text>
<rect rx="6.0" ry="6.0" x="32.0" y="982.0" width="56.0" height="52.0" class=""/>
<text x="60.0" y="1008.0" class="tap">?</text>
<rect rx="6.0" ry="6.0" x="92.0" y="954.0" width="56.0" height="52.0" class=""/>
<text x="120.0" y="980.0" class="tap">#</text>
<rect rx="6.0" ry="6.0" x="152.0" y="954.0" width="56.0" height="52.0" class=""/>
<text x="180.0" y="980.0" class="tap">-</text>
<rect rx="6.0" ry="6.0" x="212.0" y="954.0" width="56.0" height="52.0" class=""/>
<text x="240.0" y="980.0" class="tap">+</text>
<rect rx="6.0" ry="6.0" x="272.0" y="982.0" width="56.0" height="52.0" class=""/>
<text x="300.0" y="1008.0" class="tap">@</text>
<rect rx="6.0" ry="6.0" x="362.0" y="982.0" width="56.0" height="52.0" class=""/>
<text x="390.0" y="1008.0" class="tap">/</text>
<rect rx="6.0" ry="6.0" x="422.0" y="954.0" width="56.0" height="52.0" class=""/>
<text x="450.0" y="980.0" class="tap">CMD</text>
<rect rx="6.0" ry="6.0" x="482.0" y="954.0" width="56.0" height="52.0" class=""/>
<text x="510.0" y="980.0" class="tap">SHIFT</text>
<rect rx="6.0" ry="6.0" x="542.0" y="954.0" width="56.0" height="52.0" class=""/>
<text x="570.0" y="980.0" class="tap">ALT</text>
<rect rx="6.0" ry="6.0" x="602.0" y="982.0" width="56.0" height="52.0" class=""/>
<text x="630.0" y="1008.0" class="tap">;</text>
<rect rx="6.0" ry="6.0" x="92.0" y="1010.0" width="56.0" height="52.0" class=""/>
<text x="120.0" y="1036.0" class="tap">|</text>
<rect rx="6.0" ry="6.0" x="152.0" y="1010.0" width="56.0" height="52.0" class=""/>
<text x="180.0" y="1036.0" class="tap">^</text>
<rect rx="6.0" ry="6.0" x="212.0" y="1010.0" width="56.0" height="52.0" class=""/>
<text x="240.0" y="1036.0" class="tap">$</text>
<rect rx="6.0" ry="6.0" x="422.0" y="1010.0" width="56.0" height="52.0" class=""/>
<text x="450.0" y="1036.0" class="tap">\</text>
<rect rx="6.0" ry="6.0" x="482.0" y="1010.0" width="56.0" height="52.0" class=""/>
<text x="510.0" y="1036.0" class="tap">(</text>
<rect rx="6.0" ry="6.0" x="542.0" y="1010.0" width="56.0" height="52.0" class=""/>
<text x="570.0" y="1036.0" class="tap">&amp;</text>
<rect rx="6.0" ry="6.0" x="212.0" y="1066.0" width="56.0" height="52.0" class=""/>
<rect rx="6.0" ry="6.0" x="272.0" y="1066.0" width="56.0" height="52.0" class=""/>
<rect rx="6.0" ry="6.0" x="362.0" y="1066.0" width="56.0" height="52.0" class=""/>
<rect rx="6.0" ry="6.0" x="422.0" y="1066.0" width="56.0" height="52.0" class=""/>
<rect rx="6.0" ry="6.0" x="526.0" y="1023.0" width="28.0" height="26.0" class="combo"/>
<text x="540.0" y="1036.0" class="combo">;</text>
<rect rx="6.0" ry="6.0" x="76.0" y="981.0" width="28.0" height="26.0" class="combo"/>
<text x="90.0" y="994.0" class="combo">~</text>
<rect rx="6.0" ry="6.0" x="106.0" y="939.0" width="28.0" height="26.0" class="combo"/>
<text x="120.0" y="952.0" class="combo">[</text>
<rect rx="6.0" ry="6.0" x="556.0" y="939.0" width="28.0" height="26.0" class="combo"/>
<text x="570.0" y="952.0" class="combo">]</text>
<rect rx="6.0" ry="6.0" x="166.0" y="939.0" width="28.0" height="26.0" class="combo"/>
<text x="180.0" y="952.0" class="combo">(</text>
<rect rx="6.0" ry="6.0" x="496.0" y="939.0" width="28.0" height="26.0" class="combo"/>
<text x="510.0" y="952.0" class="combo">)</text>
<rect rx="6.0" ry="6.0" x="226.0" y="939.0" width="28.0" height="26.0" class="combo"/>
<text x="240.0" y="952.0" class="combo">{</text>
<rect rx="6.0" ry="6.0" x="436.0" y="939.0" width="28.0" height="26.0" class="combo"/>
<text x="450.0" y="952.0" class="combo">}</text>
<rect rx="6.0" ry="6.0" x="256.0" y="925.0" width="28.0" height="26.0" class="combo"/>
<text x="270.0" y="938.0" class="combo">ESC</text>
<rect rx="6.0" ry="6.0" x="256.0" y="981.0" width="28.0" height="26.0" class="combo"/>
<text x="270.0" y="994.0" class="combo">DEL</text>
</g>
<g class="layer-Num">
<text x="30.0" y="1148.0" class="label">Num:</text>
<rect rx="6.0" ry="6.0" x="32.0" y="1206.0" width="56.0" height="52.0" class=""/>
<rect rx="6.0" ry="6.0" x="92.0" y="1178.0" width="56.0" height="52.0" class=""/>
<rect rx="6.0" ry="6.0" x="152.0" y="1178.0" width="56.0" height="52.0" class=""/>
<rect rx="6.0" ry="6.0" x="212.0" y="1178.0" width="56.0" height="52.0" class=""/>
<text x="240.0" y="1204.0" class="tap">CTRL</text>
<rect rx="6.0" ry="6.0" x="272.0" y="1206.0" width="56.0" height="52.0" class=""/>
<rect rx="6.0" ry="6.0" x="362.0" y="1206.0" width="56.0" height="52.0" class=""/>
<rect rx="6.0" ry="6.0" x="422.0" y="1178.0" width="56.0" height="52.0" class=""/>
<text x="450.0" y="1204.0" class="tap">CTRL</text>
<rect rx="6.0" ry="6.0" x="482.0" y="1178.0" width="56.0" height="52.0" class=""/>
<rect rx="6.0" ry="6.0" x="542.0" y="1178.0" width="56.0" height="52.0" class=""/>
<rect rx="6.0" ry="6.0" x="602.0" y="1206.0" width="56.0" height="52.0" class=""/>
<rect rx="6.0" ry="6.0" x="32.0" y="1262.0" width="56.0" height="52.0" class=""/>
<text x="60.0" y="1288.0" class="tap">1</text>
<rect rx="6.0" ry="6.0" x="92.0" y="1234.0" width="56.0" height="52.0" class=""/>
<text x="120.0" y="1260.0" class="tap">2</text>
<rect rx="6.0" ry="6.0" x="152.0" y="1234.0" width="56.0" height="52.0" class=""/>
<text x="180.0" y="1260.0" class="tap">3</text>
<rect rx="6.0" ry="6.0" x="212.0" y="1234.0" width="56.0" height="52.0" class=""/>
<text x="240.0" y="1260.0" class="tap">4</text>
<rect rx="6.0" ry="6.0" x="272.0" y="1262.0" width="56.0" height="52.0" class=""/>
<text x="300.0" y="1288.0" class="tap">5</text>
<rect rx="6.0" ry="6.0" x="362.0" y="1262.0" width="56.0" height="52.0" class=""/>
<text x="390.0" y="1288.0" class="tap">6</text>
<rect rx="6.0" ry="6.0" x="422.0" y="1234.0" width="56.0" height="52.0" class=""/>
<text x="450.0" y="1260.0" class="tap">7</text>
<rect rx="6.0" ry="6.0" x="482.0" y="1234.0" width="56.0" height="52.0" class=""/>
<text x="510.0" y="1260.0" class="tap">8</text>
<rect rx="6.0" ry="6.0" x="542.0" y="1234.0" width="56.0" height="52.0" class=""/>
<text x="570.0" y="1260.0" class="tap">9</text>
<rect rx="6.0" ry="6.0" x="602.0" y="1262.0" width="56.0" height="52.0" class=""/>
<text x="630.0" y="1288.0" class="tap">0</text>
<rect rx="6.0" ry="6.0" x="92.0" y="1290.0" width="56.0" height="52.0" class=""/>
<text x="120.0" y="1316.0" class="tap">ALT</text>
<rect rx="6.0" ry="6.0" x="152.0" y="1290.0" width="56.0" height="52.0" class=""/>
<text x="180.0" y="1316.0" class="tap">CMD</text>
<rect rx="6.0" ry="6.0" x="212.0" y="1290.0" width="56.0" height="52.0" class=""/>
<text x="240.0" y="1316.0" class="tap">5</text>
<rect rx="6.0" ry="6.0" x="422.0" y="1290.0" width="56.0" height="52.0" class=""/>
<text x="450.0" y="1316.0" class="tap">6</text>
<rect rx="6.0" ry="6.0" x="482.0" y="1290.0" width="56.0" height="52.0" class=""/>
<text x="510.0" y="1316.0" class="tap">CMD</text>
<rect rx="6.0" ry="6.0" x="542.0" y="1290.0" width="56.0" height="52.0" class=""/>
<text x="570.0" y="1316.0" class="tap">ALT</text>
<rect rx="6.0" ry="6.0" x="212.0" y="1346.0" width="56.0" height="52.0" class="held"/>
<rect rx="6.0" ry="6.0" x="272.0" y="1346.0" width="56.0" height="52.0" class=""/>
<rect rx="6.0" ry="6.0" x="362.0" y="1346.0" width="56.0" height="52.0" class=""/>
<rect rx="6.0" ry="6.0" x="422.0" y="1346.0" width="56.0" height="52.0" class="held"/>
<rect rx="6.0" ry="6.0" x="526.0" y="1303.0" width="28.0" height="26.0" class="combo"/>
<text x="540.0" y="1316.0" class="combo">;</text>
<rect rx="6.0" ry="6.0" x="106.0" y="1219.0" width="28.0" height="26.0" class="combo"/>
<text x="120.0" y="1232.0" class="combo">[</text>
<rect rx="6.0" ry="6.0" x="556.0" y="1219.0" width="28.0" height="26.0" class="combo"/>
<text x="570.0" y="1232.0" class="combo">]</text>
<rect rx="6.0" ry="6.0" x="166.0" y="1219.0" width="28.0" height="26.0" class="combo"/>
<text x="180.0" y="1232.0" class="combo">(</text>
<rect rx="6.0" ry="6.0" x="496.0" y="1219.0" width="28.0" height="26.0" class="combo"/>
<text x="510.0" y="1232.0" class="combo">)</text>
<rect rx="6.0" ry="6.0" x="226.0" y="1219.0" width="28.0" height="26.0" class="combo"/>
<text x="240.0" y="1232.0" class="combo">{</text>
<rect rx="6.0" ry="6.0" x="436.0" y="1219.0" width="28.0" height="26.0" class="combo"/>
<text x="450.0" y="1232.0" class="combo">}</text>
<rect rx="6.0" ry="6.0" x="256.0" y="1205.0" width="28.0" height="26.0" class="combo"/>
<text x="270.0" y="1218.0" class="combo">ESC</text>
<rect rx="6.0" ry="6.0" x="256.0" y="1261.0" width="28.0" height="26.0" class="combo"/>
<text x="270.0" y="1274.0" class="combo">DEL</text>
</g>
</svg>
